<?xml version="1.0" encoding="UTF-8" standalone="no"?>
<!-- Created with Inkscape (http://www.inkscape.org/) -->

<svg
   xmlns:dc="http://purl.org/dc/elements/1.1/"
   xmlns:cc="http://creativecommons.org/ns#"
   xmlns:rdf="http://www.w3.org/1999/02/22-rdf-syntax-ns#"
   xmlns:svg="http://www.w3.org/2000/svg"
   xmlns="http://www.w3.org/2000/svg"
   xmlns:sodipodi="http://sodipodi.sourceforge.net/DTD/sodipodi-0.dtd"
   xmlns:inkscape="http://www.inkscape.org/namespaces/inkscape"
   width="1024"
   height="512"
   viewBox="0 0 1024 512"
   id="svg7350"
   version="1.1"
   inkscape:version="0.91 r13725"
   sodipodi:docname="splash-color.ink.svg"
   inkscape:export-filename="/Users/intelWorx/projects/pebbmovies/resources/img/splash~color.png"
   inkscape:export-xdpi="11.25"
   inkscape:export-ydpi="11.25">
  <defs
     id="defs7352" />
  <sodipodi:namedview
     id="base"
     pagecolor="#ffffff"
     bordercolor="#666666"
     borderopacity="1.0"
     inkscape:pageopacity="0.0"
     inkscape:pageshadow="2"
     inkscape:zoom="0.62597656"
     inkscape:cx="401.35549"
     inkscape:cy="383.80031"
     inkscape:document-units="px"
     inkscape:current-layer="layer2"
     showgrid="false"
     units="px"
     inkscape:window-width="1280"
     inkscape:window-height="716"
     inkscape:window-x="0"
     inkscape:window-y="0"
     inkscape:window-maximized="1" />
  <metadata
     id="metadata7355">
    <rdf:RDF>
      <cc:Work
         rdf:about="">
        <dc:format>image/svg+xml</dc:format>
        <dc:type
           rdf:resource="http://purl.org/dc/dcmitype/StillImage" />
        <dc:title />
      </cc:Work>
    </rdf:RDF>
  </metadata>
  <g
     inkscape:groupmode="layer"
     id="layer2"
     inkscape:label="Layer 2">
    <rect
       style="opacity:1;fill:#aa0000;fill-opacity:1;stroke:#a60000;stroke-width:2;stroke-miterlimit:4;stroke-dasharray:none;stroke-opacity:1"
       id="rect4830"
       width="1153.3978"
       height="602.25897"
       x="-41.535103"
       y="-34.346336" />
  </g>
  <g
     inkscape:label="Layer 1"
     inkscape:groupmode="layer"
     id="layer1"
     transform="translate(0,-540.36219)"
     style="display:inline"
     sodipodi:insensitive="true">
    <path
       inkscape:connector-curvature="0"
       id="path4489"
       d="m 806.84236,1565.8481 c -1.81801,-0.7178 -2.9284,-2.0834 -3.58867,-4.4136 -1.92422,-6.7906 -33.90496,-262.7765 -35.15377,-281.3841 -0.47363,-7.0571 -1.14995,-16.3363 -1.50293,-20.6205 -1.03409,-12.5507 1.86997,-16.4474 12.25757,-16.4474 2.81398,0 5.38334,-0.2671 5.70969,-0.5934 0.32636,-0.3264 -1.18173,-3.8277 -3.35131,-7.7808 -3.69145,-6.726 -3.94669,-7.6795 -3.97578,-14.8516 -0.0379,-9.3564 2.67073,-16.0258 9.45373,-23.2774 10.45199,-11.174 27.22809,-17.2378 35.64638,-12.8846 5.96078,3.0825 7.22208,11.6605 2.2855,15.5436 -1.30075,1.0231 -5.34019,2.3621 -8.97653,2.9755 -11.48555,1.9373 -16.1469,6.9707 -16.14968,17.4387 -0.002,6.951 2.02716,11.357 6.51533,14.148 4.81379,2.9935 17.05146,3.1045 21.9965,0.1996 3.73113,-2.1918 7.16138,-7.6121 8.04429,-12.7113 1.41553,-8.175 4.62669,-11.4763 11.15588,-11.4689 4.13558,0.01 9.10868,3.1237 9.8799,6.1965 1.25281,4.9916 -0.24515,11.9769 -4.19959,19.5839 l -3.88958,7.4822 15.72171,0 c 8.64694,0 15.57914,-0.3208 15.40488,-0.7129 -0.17425,-0.3921 -1.94261,-3.9403 -3.92969,-7.8849 -2.33671,-4.6386 -3.80856,-9.0679 -4.16683,-12.5393 -0.52018,-5.04 -0.37975,-5.5416 2.303,-8.2243 3.44129,-3.4413 6.97074,-4.4665 11.45643,-3.3277 4.23527,1.0752 6.58408,4.2698 7.76188,10.5568 2.0119,10.7394 7.40209,14.9752 19.04931,14.9695 11.2678,-0.01 15.94318,-3.8269 18.1547,-14.8389 0.5647,-2.8118 1.52261,-5.7678 2.12869,-6.5688 4.07926,-5.391 11.22026,-6.2449 16.05675,-1.92 2.93393,2.6235 3.10341,3.1313 3.09325,9.267 -0.01,5.8144 -0.40606,7.1851 -3.80184,13.1445 -2.08511,3.6593 -3.93367,6.974 -4.10792,7.3661 -0.17425,0.3921 5.47349,0.7129 12.55054,0.7129 l 12.86736,0 0.44289,-3.089 c 2.3643,-16.4904 4.17149,-21.1087 10.95481,-27.9952 5.2187,-5.2981 12.46939,-9.0957 20.52119,-10.7481 15.7332,-3.2287 36.1059,4.3261 41.9932,15.5724 2.8803,5.5021 -0.6041,11.9594 -7.2398,13.4168 -3.4128,0.7496 -9.0893,-1.5482 -12.8851,-5.2157 -6.2277,-6.0173 -13.4137,-7.1211 -21.1764,-3.2527 -8.11545,4.0441 -12.4411,11.2381 -11.02244,18.3314 l 0.59602,2.9801 29.70432,0 c 25.708,0 29.8694,-0.1988 30.9307,-1.4776 1.8741,-2.2582 4.464,-3.3924 12.109,-5.3029 3.8539,-0.963 8.2078,-2.606 9.6754,-3.651 5.5683,-3.965 7.3163,-14.2174 3.6984,-21.6911 -1.6267,-3.3602 -3.0163,-4.6647 -6.8909,-6.4688 -2.6693,-1.243 -5.9226,-2.2665 -7.2295,-2.2745 -7.8813,-0.048 -13.3064,-4.2786 -13.3064,-10.3757 0,-6.9024 5.3889,-10.2322 15.1083,-9.3354 6.6907,0.6174 14.1022,3.9078 21.6305,9.6031 7.1549,5.4128 11.2266,11.5414 13.3296,20.0635 2.5235,10.2258 0.5781,18.2845 -6.9458,28.7718 l -1.5342,2.1386 5.7995,0 c 8.4481,0 12.8703,2.0423 14.3895,6.6456 0.7153,2.1674 0.963,5.1944 0.5986,7.3173 -0.3418,1.9913 -1.0264,10.0362 -1.5213,17.8775 -0.4949,7.8413 -8.013,70.7143 -16.7069,139.7178 -8.6939,69.0035 -16.3579,129.9519 -17.0313,135.4408 -1.4073,11.4725 -2.4537,14.2649 -5.9656,15.9202 -3.4,1.6025 -260.66294,1.5505 -264.72544,-0.054 z m 58.23455,-19.5268 c 0,-0.9676 -1.72083,-28.234 -3.82405,-60.5919 -7.37697,-113.4938 -11.34521,-179.5444 -11.37632,-189.3566 -0.004,-1.2164 1.24321,-3.4619 2.77126,-4.9899 2.32117,-2.3212 3.55111,-2.7783 7.47552,-2.7783 5.7347,0 9.40667,2.5098 10.14203,6.932 0.93454,5.6201 6.17882,82.4426 14.90411,218.3273 1.2787,19.914 2.50583,33.0652 3.12487,33.4893 0.56064,0.384 9.86764,0.7048 20.68221,0.7128 l 19.66287,0.015 0.29682,-126.649 c 0.24196,-103.2415 0.53054,-127.0591 1.5614,-128.868 1.92405,-3.3762 7.04998,-5.1752 11.40463,-4.0026 1.96367,0.5287 4.51428,1.8408 5.66801,2.9157 l 2.0977,1.9543 0,43.0517 c 0,23.6785 0.28434,80.9746 0.63186,127.3248 l 0.63187,84.2731 18.67093,0 c 13.5336,0 19.1224,-0.3301 20.31171,-1.1998 1.46472,-1.071 2.44669,-13.8451 9.15132,-119.0453 4.13084,-64.815 7.68394,-120.8986 7.89594,-124.6301 0.2519,-4.4345 1.0302,-7.8913 2.2469,-9.9798 3.4098,-5.8532 11.7786,-6.6481 17.1238,-1.6266 1.9566,1.8381 2.224,2.9654 2.224,9.3765 0,8.2876 -2.4838,51.3344 -6.6896,115.9414 -8.2196,126.2617 -8.4106,129.6916 -7.2642,130.4207 0.6174,0.3926 10.0109,0.7204 20.8744,0.7284 14.9478,0.011 19.8572,-0.2744 20.1849,-1.1735 0.3449,-0.9464 29.9247,-236.2257 33.6675,-267.7925 0.5268,-4.4434 1.2409,-9.6966 1.587,-11.6738 l 0.6291,-3.5949 -151.17371,0.2683 c -83.14554,0.1475 -151.49866,0.5933 -151.89583,0.9906 -1.02805,1.0284 33.64463,279.5811 35.07718,281.8023 0.57379,0.8897 5.88429,1.1881 21.14505,1.1881 19.19825,0 20.37882,-0.102 20.37882,-1.7593 z m 53.072,-338.0552 c -6.54375,-3.554 -7.5044,-19.79 -1.85047,-31.2747 8.28145,-16.822 25.75718,-25.4014 43.74393,-21.4754 12.61565,2.7537 24.74992,11.7067 29.28134,21.6046 2.02468,4.4224 2.17242,5.4552 1.20129,8.3977 -1.4082,4.2669 -4.98795,6.6145 -10.08629,6.6145 -4.69339,0 -7.45152,-2.1611 -12.22473,-9.5787 -4.14323,-6.4385 -8.14048,-8.3239 -16.63052,-7.8442 -4.98666,0.2818 -7.26766,0.9342 -10.31399,2.9501 -6.43327,4.2574 -7.28411,6.3134 -7.28411,17.6016 0,9.6282 -0.0635,9.9178 -2.66677,12.1589 -3.10316,2.6715 -9.09904,3.0565 -13.16968,0.8456 z m -63.84551,-9.4294 c -10.97053,-4.5107 -17.8183,-10.9236 -22.75051,-21.3057 -7.00017,-14.735 -0.72841,-32.9744 14.78664,-43.0023 8.20651,-5.3041 14.24736,-6.8546 24.81509,-6.3693 7.29282,0.3349 9.64734,0.875 14.96531,3.4325 11.29805,5.4336 19.54252,15.6619 22.34629,27.7233 1.0742,4.6211 1.02536,5.6351 -0.41298,8.5742 -3.69175,7.5437 -13.50515,8.6851 -17.93953,2.0866 -1.16341,-1.7312 -2.61681,-5.5634 -3.22977,-8.5161 -0.61297,-2.9526 -1.7425,-6.3268 -2.5101,-7.4983 -2.32376,-3.5466 -9.41831,-6.3817 -15.96933,-6.3817 -11.42776,0 -18.07014,6.4644 -17.94583,17.4648 0.11095,9.8187 4.33045,14.0615 16.62625,16.718 10.72306,2.3168 14.52966,7.4797 10.81337,14.6662 -2.00305,3.8735 -4.12327,4.7366 -11.57083,4.7107 -4.62239,-0.016 -8.06678,-0.6758 -12.02407,-2.3029 z m 154.2971,-18.4345 c -5.7671,-5.767 -6.2754,-19.017 -1.1498,-29.9702 3.911,-8.3577 10.3521,-15.0687 18.1392,-18.8994 5.9625,-2.9331 6.7871,-3.0807 17.2081,-3.0807 10.6014,0 11.1696,0.1072 18.0739,3.4096 13.096,6.2638 22.8447,17.6599 21.453,25.0782 -0.8764,4.6718 -5.3103,8.105 -10.4674,8.105 -4.8326,0 -8.3104,-2.3735 -10.925,-7.4559 -4.1408,-8.0492 -11.4971,-11.5691 -20.2534,-9.6912 -7.2141,1.5471 -11.8268,4.5298 -14.0237,9.068 -2.1834,4.5103 -2.2983,6.1797 -0.8621,12.5213 1.3112,5.7891 0.1433,9.1219 -4.1042,11.7116 -4.6319,2.8241 -9.7815,2.5108 -13.0886,-0.7963 z m -39.44808,-34.695 c -2.8727,-1.3133 -7.55975,-7.2265 -9.91033,-12.503 -2.08669,-4.684 -2.47037,-20.1296 -0.65515,-26.3738 2.78108,-9.5665 10.06265,-16.7103 17.15123,-16.8265 6.46178,-0.106 10.99779,3.3913 10.99779,8.4794 0,0.9803 -2.13556,4.9165 -4.74566,8.747 -6.1197,8.9812 -6.37384,12.8651 -1.37204,20.9686 1.8628,3.018 3.62007,6.924 3.90502,8.68 1.10971,6.8383 -8.12374,12.1415 -15.37086,8.8283 z m -44.6933,-0.9957 c -0.99585,-0.7282 -3.53691,-4.6412 -5.64681,-8.6956 -4.90964,-9.4343 -7.34907,-10.8906 -18.24296,-10.8906 -7.04123,0 -8.06979,-0.2411 -10.78934,-2.5295 -1.65337,-1.3912 -3.40987,-3.5914 -3.9033,-4.8892 -1.27406,-3.351 0.58602,-8.2716 4.06264,-10.7472 2.58846,-1.8431 3.76559,-1.9967 12.19594,-1.5907 8.23469,0.3965 10.17702,0.8511 16.53203,3.8691 8.80114,4.1796 15.51999,10.2866 19.46927,17.6962 3.97662,7.4609 4.03785,12.4843 0.19895,16.3232 -2.31253,2.3125 -3.55673,2.7783 -7.42203,2.7783 -2.55406,0 -5.45853,-0.5958 -6.45439,-1.324 z"
       style="fill:#d0d0d0" />
    <path
       inkscape:connector-curvature="0"
       id="path4483"
       d="m 168.69366,1564.5193 c -1.14572,-0.4541 -2.72752,-1.811 -3.51512,-3.0153 -1.48107,-2.2648 -14.07919,-98.4184 -30.44234,-232.3476 -10.53619,-86.2367 -10.00696,-79.4133 -6.43641,-82.9839 2.61248,-2.6125 3.46306,-2.8866 8.95608,-2.8866 3.5708,0 6.78603,-0.524 7.81009,-1.2728 1.6461,-1.2037 1.514,-1.6543 -2.43211,-8.2966 -4.10258,-6.9056 -4.17274,-7.1679 -4.17274,-15.5979 0,-7.9598 0.23307,-9.0039 3.25313,-14.574 5.72619,-10.561 17.83238,-19.1091 29.82384,-21.0585 8.46105,-1.3754 13.97086,1.8697 13.97086,8.2284 0,4.3431 -2.60226,6.5755 -9.18196,7.8771 -12.12919,2.3994 -16.49803,5.3965 -18.46287,12.6661 -1.37669,5.0936 -0.55749,13.175 1.73309,17.097 3.59004,6.147 13.51789,9.2852 22.96489,7.2592 8.19068,-1.7566 12.41073,-6.509 14.45617,-16.2797 1.4388,-6.8728 3.84108,-9.3145 9.16439,-9.3145 3.39798,0 4.72973,0.5453 7.08521,2.9008 2.64863,2.6486 2.85087,3.2887 2.32732,7.366 -0.31536,2.456 -2.49219,8.2759 -4.8374,12.9331 -2.34521,4.6573 -4.04172,8.8274 -3.77003,9.267 0.71158,1.1514 34.35353,1.014 35.0687,-0.1432 0.32037,-0.5183 -0.7901,-2.9374 -2.46769,-5.3757 -9.46887,-13.7626 -8.55074,-26.948 1.87646,-26.948 2.07201,0 4.45967,0.2657 5.30589,0.5905 1.96779,0.7551 3.88133,4.5467 4.73866,9.3894 1.09243,6.1707 4.92641,11.8103 9.41446,13.8481 5.01639,2.2778 17.45961,2.5146 21.52983,0.4098 4.86519,-2.5159 9.50654,-10.51 9.50654,-16.3738 0,-1.283 1.23343,-3.5408 2.77828,-5.0857 2.24831,-2.2483 3.5949,-2.7783 7.05947,-2.7783 3.49299,0 4.64388,0.4611 6.25111,2.5044 4.12295,5.2415 2.01443,15.3168 -5.53017,26.4254 -1.04297,1.5357 -1.68156,3.1396 -1.4191,3.5643 0.59398,0.961 27.07822,1.0027 28.46149,0.045 0.55457,-0.3841 1.50947,-4.5282 2.122,-9.209 1.41431,-10.8081 4.40585,-17.022 11.17183,-23.2057 11.75066,-10.7395 31.03513,-12.7054 46.89415,-4.7806 12.66866,6.3306 16.68866,17.0962 7.76431,20.7927 -4.28618,1.7754 -8.64013,0.4954 -14.06459,-4.1348 -8.97317,-7.6594 -18.75291,-7.6508 -27.71945,0.024 -4.74679,4.063 -6.74165,8.1076 -6.74165,13.6687 0,8.0152 -1.85898,7.5718 31.7432,7.5718 l 29.7754,0 3.61502,-2.8729 c 1.98827,-1.58 4.72025,-3.1144 6.07108,-3.4096 1.35083,-0.2952 4.79478,-1.18 7.65322,-1.9662 11.93537,-3.2829 16.62449,-15.8525 10.21928,-27.3936 -2.57504,-4.6398 -8.11948,-7.6008 -16.79333,-8.9686 -7.55946,-1.192 -9.98546,-3.2832 -9.98546,-8.6074 0,-5.9375 1.87749,-7.136 11.17866,-7.136 6.93435,0 8.55418,0.3578 14.1982,3.1364 13.49913,6.6456 21.46763,17.1522 22.33837,29.4537 0.56084,7.9231 -0.74006,12.8981 -5.04575,19.2963 -4.80061,7.1337 -4.35669,7.8895 4.99219,8.499 7.85485,0.5121 10.54001,1.7302 12.6963,5.7592 0.93206,1.7416 -3.26403,37.0247 -22.48353,189.0542 -7.10427,56.1961 -13.32115,105.9742 -13.81529,110.6181 -0.89202,8.383 -2.21843,12.3076 -5.15055,15.2398 -1.38878,1.3887 -13.23294,1.5196 -130.47297,1.442 -70.92004,-0.047 -129.88294,-0.4569 -131.02866,-0.911 z m 57.14738,-16.9846 c 0.28871,-0.4672 -1.3895,-30.086 -3.72933,-65.8195 -8.91031,-136.0767 -11.61915,-184.2703 -10.58822,-188.3779 0.65623,-2.6146 4.82475,-5.3797 8.11013,-5.3797 2.73937,0 6.19778,1.7566 7.47041,3.7944 1.41627,2.2678 13.84049,178.0291 17.00668,240.5878 0.37682,7.4453 1.09437,12.9294 1.82208,13.9256 1.07573,1.4726 3.40569,1.6434 22.42605,1.6434 l 21.22561,0 0.47523,-127.682 0.47523,-127.682 2.66677,-2.2936 c 3.23642,-2.7836 6.75899,-2.9141 10.87731,-0.4031 1.69895,1.0358 3.1905,1.9966 3.31458,2.135 0.12407,0.1383 0.44485,57.7782 0.71284,128.0886 l 0.48727,127.8371 19.74592,0.2569 19.74591,0.257 2.35231,-2.3523 c 1.34662,-1.3466 2.36833,-3.4882 2.38978,-5.0093 0.0206,-1.4613 3.5824,-57.7891 7.91508,-125.1728 l 7.87762,-122.5157 3.03021,-2.7075 c 4.41911,-3.9485 10.81143,-3.3242 13.87758,1.3553 1.68263,2.5681 0.90123,18.7926 -6.12138,127.1008 -8.91477,137.4906 -8.31078,126.0893 -6.76148,127.6342 1.26351,1.2599 42.14249,1.7293 43.3728,0.498 0.36018,-0.3605 8.29147,-61.9504 17.62508,-136.8665 9.33362,-74.9161 17.46755,-138.9168 18.0754,-142.2239 0.75966,-4.133 0.79852,-6.3196 0.12431,-6.9938 -0.66886,-0.6689 -49.07183,-0.8726 -152.15746,-0.6404 -138.06166,0.3111 -151.31069,0.4748 -152.72264,1.8867 -1.42779,1.4278 -0.2302,12.117 15.65359,139.7178 9.45981,75.9945 17.51823,139.6658 17.9076,141.4917 0.57232,2.6839 1.25426,3.4363 3.55934,3.9271 4.45582,0.9485 41.17024,0.9332 41.75779,-0.017 z m 54.71403,-340.994 c -8.09817,-3.2078 -9.69782,-18.1646 -3.29428,-30.8014 1.39536,-2.7536 4.69219,-7.2853 7.32628,-10.0705 11.26948,-11.9158 27.51974,-14.5002 44.04884,-7.0056 10.19851,4.6242 20.35237,15.9696 20.35237,22.7407 0,3.4926 -4.94883,7.7057 -9.05132,7.7057 -3.84303,0 -7.12714,-2.8099 -12.1388,-10.386 -5.44103,-8.2252 -17.0946,-9.9772 -27.44996,-4.1268 -7.05617,3.9865 -8.3876,6.9811 -8.3876,18.8653 0,8.1909 -0.26325,9.848 -1.78303,11.2234 -1.91915,1.7368 -7.30162,2.7745 -9.6225,1.8552 z m -60.78647,-8.9166 c -10.76328,-2.2323 -21.4235,-10.6299 -26.89396,-21.1859 -2.61399,-5.0441 -3.04167,-6.8578 -3.06339,-12.991 -0.0214,-6.0344 0.42764,-8.0842 2.92552,-13.3554 7.49369,-15.8137 25.13569,-25.0084 42.01636,-21.898 16.89284,3.1127 31.55995,18.3135 31.90023,33.061 0.10603,4.5957 -0.19085,5.4699 -2.54675,7.4991 -1.85708,1.5995 -3.81811,2.297 -6.45882,2.297 -5.32768,0 -8.00587,-2.9407 -9.47387,-10.4024 -2.26723,-11.5242 -7.73718,-15.7353 -20.43886,-15.7353 -6.82321,0 -8.1211,0.2964 -11.71777,2.6766 -5.00381,3.3114 -7.6477,8.7235 -7.6764,15.7137 -0.042,10.2189 4.60707,15.1726 17.19353,18.3205 9.50759,2.3779 11.29943,3.7127 11.29943,8.4177 0,6.7501 -6.70781,9.7305 -17.06525,7.5824 z m 151.43243,-18.4606 c -6.71953,-2.8721 -8.281,-19.2303 -2.8854,-30.2278 5.51524,-11.2413 17.20561,-19.745 29.03107,-21.1175 14.67599,-1.7033 31.95156,6.1406 39.87721,18.1062 3.72762,5.6276 3.96341,10.0012 0.71436,13.2502 -5.51141,5.5114 -12.00881,3.5373 -17.04717,-5.1796 -4.16228,-7.2011 -9.09835,-9.8054 -17.72653,-9.3527 -7.45529,0.3913 -14.27966,3.4291 -17.33928,7.7185 -1.86627,2.6164 -2.15542,4.2432 -2.22398,12.5121 -0.0991,11.9454 0.007,11.4011 -2.53496,13.0467 -3.40201,2.2027 -6.66084,2.6136 -9.86532,1.2439 z m -86.33627,-37.7211 c -1.42995,-1.1248 -3.41818,-3.954 -4.41829,-6.2872 -4.47887,-10.4488 -9.2074,-13.4741 -21.11227,-13.5075 -6.94187,-0.019 -7.62493,-0.2066 -10.21746,-2.7991 -3.4376,-3.4376 -3.54296,-6.6222 -0.34483,-10.4229 3.11513,-3.7022 7.34796,-4.5004 16.40056,-3.0931 14.71673,2.288 28.14001,12.0121 32.43766,23.4986 2.5448,6.8016 1.95021,10.3049 -2.176,12.8209 -3.91501,2.3872 -7.35467,2.319 -10.56937,-0.2097 z m 42.31719,-0.4313 c -1.61861,-1.3619 -4.1094,-4.4628 -5.53508,-6.8908 -2.32778,-3.9643 -2.62733,-5.5115 -2.93735,-15.1714 -0.38432,-11.9746 0.60113,-15.9788 5.64659,-22.9438 5.65129,-7.8014 12.28012,-9.6876 17.10159,-4.8661 3.74338,3.7434 3.63042,7.2361 -0.40523,12.53 -7.68009,10.0748 -8.15181,14.5052 -2.51926,23.6606 4.59241,7.4648 4.94488,11.319 1.29751,14.188 -3.58946,2.8234 -8.94629,2.609 -12.64877,-0.5065 z"
       style="fill:#6e6e6e" />
    <path
       inkscape:connector-curvature="0"
       id="path4481"
       d="m -171.10093,1602.8466 c -1.25735,-0.2928 -2.89584,-1.9143 -3.84162,-3.8019 -1.64087,-3.2747 -11.68743,-80.2625 -29.7008,-227.6001 -3.8986,-31.888 -7.51862,-60.9721 -8.04449,-64.6314 -1.88701,-13.1306 -2.1757,-18.2384 -1.14019,-20.1732 1.5098,-2.8211 6.89989,-5.014 12.32433,-5.014 8.92626,0 9.49793,-1.1998 4.4604,-9.3614 -8.22947,-13.333 -5.79141,-28.2199 6.53009,-39.8731 6.80021,-6.4313 15.7936,-10.7108 23.8715,-11.3592 5.79724,-0.4654 6.20632,-0.3553 8.97816,2.4165 1.76197,1.762 2.90416,3.8845 2.90416,5.3967 0,3.4038 -3.77886,6.9107 -8.21034,7.6194 -15.44805,2.4706 -20.3035,7.1682 -20.3035,19.6433 0,11.6156 5.68338,17.6788 17.44687,18.6129 7.80181,0.6195 13.61872,-1.0656 17.35557,-5.0279 3.07168,-3.2569 6.0674,-10.3754 6.0674,-14.4174 0,-5.5229 7.32842,-8.5816 13.23848,-5.5254 5.53773,2.8637 5.40844,9.5996 -0.40726,21.217 -2.35239,4.6991 -4.27707,9.0197 -4.27707,9.6012 0,0.7391 5.43613,1.0574 18.05876,1.0574 20.435719,0 20.043079,0.1841 15.13044,-7.095 -3.45059,-5.1129 -6.57629,-13.5096 -6.57629,-17.6664 0,-4.2702 4.48087,-8.5048 8.999479,-8.5048 4.64113,0 7.59814,3.1056 8.94738,9.3969 2.53869,11.8375 9.0974,17.2055 21.02206,17.2055 9.77168,0 16.99076,-4.7675 19.0395,-12.5738 0.58441,-2.2268 1.47466,-5.6501 1.97833,-7.6074 1.3848,-5.3814 7.14502,-7.8395 12.57402,-5.3659 6.67415,3.041 5.55596,14.1515 -2.63787,26.2098 -1.34208,1.975 -2.44014,4.1333 -2.44014,4.796 0,1.599 29.0141,1.752 29.9991296,0.1582 0.35586,-0.5758 0.99044,-4.1091 1.41016,-7.8518 2.10292,-18.7517 12.68398,-30.1198 30.8339104,-33.1274 19.65282,-3.2565 44.95839,11.1512 38.06475,21.6722 -1.94014,2.9611 -5.70181,4.4592 -9.24341,3.6813 -1.4855,-0.3262 -4.9235,-2.4904 -7.64001,-4.8091 -5.5887,-4.7704 -10.72519,-6.534 -16.66118,-5.7204 -12.10842,1.6597 -21.5591704,13.9693 -18.3020404,23.8385 l 1.11009,3.3636 30.4414704,0 30.44146,0 2.7938,-2.3508 c 2.66293,-2.2407 4.65645,-2.9988 13.88854,-5.2815 4.81611,-1.1908 10.4598,-5.865 12.24749,-10.1435 2.684471,-6.4248 0.983551,-15.9619 -3.75118,-21.0328 -3.07517,-3.2936 -6.23856,-4.6719 -13.58404,-5.9189 -8.05194,-1.3669 -10.84497,-3.5603 -10.84497,-8.5167 0,-5.4495 2.5321,-7.1101 10.84177,-7.1101 5.98762,0 7.73859,0.4439 14.04578,3.5611 14.705221,7.2677 22.104781,17.7005 22.079761,31.1307 -0.0145,7.7377 -1.89487,13.2671 -6.61767,19.459 -3.73846,4.9013 -2.8132,5.8763 6.06439,6.3902 8.16557,0.4727 12.00309,2.1361 13.38856,5.8034 0.47628,1.2606 0.0809,7.3645 -0.99731,15.3953 -0.98255,7.3185 -6.48375,51.1585 -12.22487,97.4223 -25.225271,203.2727 -24.838101,200.5578 -28.808961,202.0127 -1.66472,0.6099 -257.731769,1.0036 -260.322779,0.4002 z m 57.12745,-16.7244 c 0.21521,-0.1865 -1.18652,-24.8275 -3.11497,-54.7578 -7.32058,-113.6182 -8.18081,-127.3497 -9.57173,-152.7914 -0.78594,-14.3757 -1.69077,-30.7199 -2.01073,-36.3204 -0.57081,-9.9912 -0.53639,-10.2282 1.82906,-12.5936 2.97744,-2.9775 8.7981,-3.2953 12.05474,-0.6582 1.98604,1.6082 2.26537,3.0377 3.38953,17.3459 2.44236,31.0864 10.86746,156.9016 15.248879,227.7172 0.32925,5.3216 0.94703,10.2402 1.37284,10.9303 0.99183,1.6073 15.02861,2.3725 31.73598,1.7299 l 12.356,-0.4752 0.47523,-126.8866 c 0.3666,-97.8835 0.74221,-127.3526 1.64324,-128.9252 1.77262,-3.0938 5.85816,-4.1612 10.20593,-2.6665 2.00387,0.6889 3.93643,1.7266 4.29455,2.3061 0.35813,0.5794 0.92845,58.4125 1.26737,128.5179 0.33893,70.1054 0.75018,127.5984 0.91389,127.7621 0.63244,0.6324 39.2699196,0.5092 40.8676396,-0.1303 0.92934,-0.3721 2.1474704,-1.5317 2.7069504,-2.5772 0.93427,-1.7456 15.95868,-227.4803 16.02171,-240.7185 0.0369,-7.7473 1.50851,-12.5194 4.45644,-14.4509 3.40249,-2.2295 8.51435,-1.8939 11.32131,0.7431 2.012,1.8902 2.2965,2.9943 2.28899,8.8836 -0.01,7.2634 -3.31597,63.7391 -7.12749,121.731 -1.3056,19.8646 -3.42987,53.012 -4.72061,73.6607 -1.29073,20.6488 -2.5935,40.3789 -2.89505,43.8447 -0.83946,9.6482 -1.50151,9.3812 23.25738,9.3812 15.44941,0 20.96344,-0.3025 21.65899,-1.1881 0.51321,-0.6534 8.47337,-61.7087 17.68924,-135.6784 9.215881,-73.9696 17.244601,-137.5645 17.841621,-141.322 0.59701,-3.7575 0.8272,-7.5049 0.51152,-8.3275 -0.51904,-1.3526 -14.966771,-1.4845 -151.010071,-1.3784 -82.739869,0.064 -151.505399,0.407 -152.812279,0.7611 -1.75513,0.4756 -2.44808,1.3794 -2.65136,3.4579 -0.15137,1.5477 7.2778,62.907 16.50927,136.3539 9.23146,73.4469 16.99778,135.9888 17.25847,138.982 0.28087,3.2248 1.06653,5.9356 1.92825,6.6532 0.79984,0.6661 4.70548,1.4502 8.67919,1.7426 7.09482,0.5219 35.36253,0.01 36.13008,-0.6582 z m 50.953389,-343.8342 c -4.56976,-4.5697 -4.53319,-18.1821 0.0742,-27.6283 8.37709,-17.1747 26.64767,-25.1813 44.84768,-19.6532 11.7061296,3.5556 23.5455896,13.5383 25.7994196,21.7532 1.44653,5.2725 -2.79308,10.69 -8.36577004,10.69 -2.60149996,0 -6.98092996,-3.9034 -10.45699956,-9.3204 -4.01374,-6.2548 -8.6982,-8.7441 -16.40545,-8.7175 -10.28032,0.035 -18.8806,5.2785 -20.8882,12.7342 -0.61902,2.2989 -0.76666,6.6009 -0.37131,10.8198 0.6046,6.4519 0.48651,7.1844 -1.49907,9.2979 -3.01663,3.2111 -9.53535,3.2235 -12.73453,0.024 z m -61.962439,-8.1222 c -10.2056,-3.674 -17.68704,-10.613 -22.47562,-20.8459 -2.33129,-4.9819 -2.85604,-7.3067 -2.78006,-12.3168 0.18615,-12.2756 9.17601,-25.0752 21.90905,-31.1938 7.68802,-3.6943 20.99686,-4.2984 28.923879,-1.3128 11.29316,4.2533 19.66001,12.3356 23.60331,22.8004 3.87424,10.2816 1.76749,16.5023 -6.01651,17.7655 -2.96517,0.4812 -3.87286,0.1592 -6.24913,-2.2171 -1.843,-1.843 -3.00655,-4.2052 -3.45193,-7.0081 -1.17157,-7.3729 -3.85875,-11.7617 -8.841779,-14.4406 -5.80385,-3.1203 -11.00583,-3.9271 -16.89016,-2.6197 -9.92937,2.2061 -15.16707,8.7723 -15.11143,18.9444 0.0578,10.571 6.14329,16.659 19.09468,19.1027 4.60456,0.8689 6.54081,1.7453 8.02552,3.6328 2.36671,3.0088 1.85681,7.3862 -1.15132,9.8837 -2.7013,2.2428 -12.11921,2.1543 -18.5885,-0.1747 z m 154.399209,-18.0855 c -5.37642,-4.2291 -5.94575,-17.9694 -1.1645,-28.1046 3.27128,-6.9344 11.51018,-15.3821 18.01099,-18.4675 6.46483,-3.0684 18.81805,-3.7608 26.70633,-1.4969 10.04838,2.8838 19.13251,9.4499 24.30298,17.5666 3.415381,5.3615 3.395221,8.0484 -0.0865,11.5302 -4.95722,4.9572 -12.23313,3.0352 -15.88589,-4.1965 -3.80123,-7.5257 -8.76673,-10.4973 -17.45337,-10.4451 -14.91329,0.09 -24.70323,10.8372 -21.03225,23.0899 1.58252,5.2819 1.35804,6.5467 -1.70571,9.6104 -3.34526,3.3453 -8.12573,3.7188 -11.69206,0.9135 z m -40.78765,-35.6911 c -3.47036,-1.8854 -8.01959,-9.0762 -9.41076,-14.8753 -1.84324,-7.6835 -0.75926,-20.1959 2.26698,-26.1679 6.32775,-12.4872 16.6944096,-16.3286 21.0958296,-7.8172 1.83297,3.5446 1.26375,5.5277 -3.50416004,12.2087 -6.57655996,9.2153 -6.65059996,13.0972 -0.44440996,23.302 4.20404,6.9127 4.29622,9.1415 0.50989996,12.3274 -3.25079996,2.7354 -6.73639996,3.0743 -10.51337956,1.0223 z m -43.87128,-0.5631 c -0.93885,-0.5463 -2.77985,-3.4203 -4.09111,-6.3867 -4.58242,-10.3666 -9.6903,-13.8192 -20.15047,-13.6204 -8.11793,0.1543 -11.73414,-1.3023 -13.43658,-5.4124 -0.95991,-2.3174 -0.89952,-3.3008 0.35119,-5.7194 2.08551,-4.0329 4.1297,-4.8781 11.79864,-4.8781 12.00443,0 22.84745,4.6493 30.88641,13.2437 8.19736,8.7636 10.61851,18.0055 5.72534,21.8544 -2.71046,2.1321 -8.21425,2.5883 -11.08342,0.9189 z"
       style="fill:#4e4e4e" />
    <path
       inkscape:connector-curvature="0"
       id="path4479"
       d="m 461.13295,1574.2812 c -5.39815,-1.5902 -5.05632,0.2768 -16.64767,-90.9234 -5.97969,-47.0478 -13.7024,-108.6377 -17.16158,-136.8664 -3.45917,-28.2287 -6.92561,-55.8158 -7.7032,-61.3047 -2.95778,-20.8788 -3.2211,-23.3519 -2.73527,-25.6898 0.73128,-3.5189 3.85085,-5.0503 11.6616,-5.7247 4.32537,-0.3735 7.50003,-1.1559 8.41906,-2.075 1.33352,-1.3335 1.07713,-2.1457 -2.66662,-8.4473 -4.07082,-6.8522 -4.14184,-7.1194 -4.13324,-15.5462 0.008,-7.5573 0.32703,-9.1805 2.69272,-13.6882 5.42148,-10.3303 17.12945,-18.7972 29.07621,-21.0271 5.83265,-1.0887 8.15181,-0.6387 11.23069,2.1794 2.70515,2.4759 2.85082,7.34 0.28925,9.6582 -1.01711,0.9204 -4.83458,2.2424 -8.48327,2.9376 -10.62912,2.0253 -14.42217,4.8438 -17.08544,12.6959 -2.17822,6.422 -0.62689,15.8459 3.32848,20.2195 6.5368,7.2282 22.91566,8.0644 30.33639,1.5489 4.09688,-3.5971 5.78606,-6.7339 7.16652,-13.3086 1.41706,-6.7489 2.99327,-8.364 8.1625,-8.364 3.21673,0 4.73403,0.5611 6.62138,2.4484 2.12225,2.1223 2.38269,3.0316 1.95504,6.8257 -0.28575,2.5351 -2.39926,8.141 -5.02202,13.3204 -3.68877,7.2846 -4.27969,9.1007 -3.18631,9.7928 1.49182,0.9444 33.106,1.2134 35.48119,0.3019 2.12702,-0.8162 1.90406,-1.8249 -1.49558,-6.7661 -6.38966,-9.287 -8.463,-20.2236 -4.52883,-23.8888 3.92151,-3.6535 9.96096,-3.1688 12.61433,1.0123 0.76123,1.1995 1.67098,3.9654 2.02166,6.1463 0.96471,5.9998 5.4832,12.4359 10.24969,14.5996 4.86939,2.2104 16.32158,2.517 20.99984,0.5623 5.86285,-2.4496 9.22036,-7.9596 11.503,-18.8776 1.14932,-5.4973 10.52844,-7.8775 14.02513,-3.5592 3.85655,4.7626 1.37163,16.1332 -5.53876,25.3444 -2.66118,3.5472 -2.81558,4.6405 -0.76641,5.4268 2.55245,0.9795 27.02554,0.6357 28.97382,-0.4069 1.30528,-0.6986 1.84323,-2.0079 1.85494,-4.5147 0.0275,-5.8661 2.63523,-16.3296 5.13138,-20.589 3.17851,-5.4237 9.21156,-10.6974 15.56537,-13.6063 7.12293,-3.261 20.1488,-4.0378 28.29218,-1.6873 16.19732,4.6752 24.94272,14.9011 18.17845,21.2558 -4.01206,3.7691 -9.75536,2.5032 -15.92605,-3.5103 -7.64305,-7.4484 -20.54765,-6.5658 -29.35206,2.0076 -3.99625,3.8914 -5.74793,8.0112 -5.74793,13.5186 0,3.0403 0.55924,4.8668 1.90092,6.2085 1.81907,1.8191 3.1682,1.9009 31.33215,1.9009 l 29.43123,0 3.17516,-2.7878 c 2.11557,-1.8575 5.32018,-3.2853 9.60285,-4.2785 3.53524,-0.8199 7.36071,-1.97 8.50106,-2.5558 9.42976,-4.8444 12.60355,-17.0248 7.02028,-26.9425 -2.75415,-4.8923 -7.07945,-7.7362 -13.79767,-9.0721 -10.33942,-2.056 -11.07419,-2.3575 -12.38244,-5.0795 -1.45023,-3.0174 -0.88924,-6.389 1.4527,-8.731 1.31391,-1.3139 2.98022,-1.5296 9.26556,-1.1996 6.43447,0.3379 8.6544,0.9245 13.84156,3.6575 13.19811,6.9536 20.91664,18.0947 20.90485,30.1745 -0.007,7.2265 -1.29095,11.4684 -5.25328,17.3564 -5.49759,8.1694 -4.82327,9.0785 7.18253,9.6838 4.25877,0.2147 7.01934,0.8982 8.81363,2.1822 2.45166,1.7544 2.58703,2.2208 2.19757,7.5723 -0.22826,3.1365 -1.34272,12.7599 -2.47655,21.3854 -4.28741,32.6156 -33.55953,266.0004 -34.30754,273.5317 -0.51795,5.2151 -1.4977,9.1504 -2.89867,11.6431 l -2.11626,3.7654 -125.6423,0 c -69.10326,0 -126.87195,0.1865 -128.37487,0.4145 -1.50292,0.228 -3.76329,0.1109 -5.02305,-0.2602 z m 55.74737,-16.1411 c 0.93126,-0.5914 0.27677,-14.6307 -3.08994,-66.2801 -9.14407,-140.2818 -11.64093,-184.6735 -10.61668,-188.7544 1.15446,-4.5998 8.42983,-6.0454 12.45037,-2.4739 2.36522,2.101 2.44083,2.5968 4.31195,28.2762 3.25279,44.6416 5.5437,78.8303 9.96726,148.7472 2.34825,37.1155 4.42695,69.7499 4.61934,72.5209 0.57573,8.2924 0.37507,8.2216 24.28413,8.5707 16.77244,0.2449 20.91586,0.052 21.80184,-1.0157 0.80988,-0.9759 1.16248,-34.3261 1.35818,-128.4612 l 0.26431,-127.1432 2.24383,-1.8167 c 1.23412,-0.9992 3.28696,-1.8168 4.56189,-1.8168 3.00936,0 7.53397,2.3587 8.28649,4.3197 0.32472,0.8462 0.5904,58.3031 0.5904,127.6821 0,96.8443 0.26492,126.4085 1.14056,127.2841 1.40834,1.4083 36.46551,1.6117 40.09293,0.2325 1.31357,-0.4994 3.01614,-1.8895 3.78348,-3.089 1.0918,-1.7067 3.06189,-28.5302 9.06072,-123.3648 4.21605,-66.6511 7.86123,-122.894 8.10039,-124.9842 0.62318,-5.4465 4.31545,-8.4634 9.50614,-7.7671 6.35992,0.853 7.43948,3.0714 6.75922,13.8893 -0.31417,4.9961 -1.63991,27.0474 -2.9461,49.0031 -1.30619,21.9557 -4.05946,65.7957 -6.11838,97.4223 -6.41921,98.6038 -6.29323,95.8097 -4.40454,97.6915 1.45147,1.4463 4.01047,1.6256 22.5141,1.578 13.76072,-0.035 21.23047,-0.4077 21.91497,-1.0922 0.57115,-0.5712 8.89106,-63.6339 18.48868,-140.1394 9.59762,-76.5054 17.72349,-140.6176 18.05751,-142.4715 0.44781,-2.4856 0.20728,-3.7027 -0.91597,-4.6349 -1.2586,-1.0445 -27.73654,-1.1836 -152.40438,-0.8005 -82.98462,0.255 -151.61334,0.7763 -152.50826,1.1585 -0.89492,0.3821 -1.85505,1.4129 -2.13362,2.2906 -0.73646,2.3204 34.45929,282.4663 35.67064,283.9259 0.56107,0.676 2.16503,1.4043 3.56435,1.6184 4.80491,0.7351 40.56285,0.6448 41.74419,-0.1054 z m 53.76302,-343.2967 c -3.06187,-1.2333 -4.81294,-4.5514 -5.5127,-10.4459 -2.09845,-17.6767 11.73871,-35.6124 30.08243,-38.9926 10.64248,-1.9611 25.53856,2.4126 33.87861,9.9474 4.97269,4.4925 9.69185,11.8705 9.69185,15.1523 0,3.7911 -3.87992,7.2396 -8.14519,7.2396 -3.72224,0 -4.97414,-1.0712 -11.10742,-9.5046 -6.5096,-8.9508 -17.55456,-10.9681 -28.23237,-5.1566 -7.85707,4.2764 -8.98392,6.566 -9.5427,19.3893 -0.45594,10.4635 -0.57163,10.9546 -2.85138,12.1043 -2.73482,1.3792 -5.29418,1.4619 -8.26113,0.2668 z m -61.85426,-9.0181 c -2.75483,-0.7692 -6.36553,-2.1001 -8.02378,-2.9577 -5.16053,-2.6686 -13.1835,-11.0449 -16.28682,-17.0041 -2.62,-5.0312 -2.96511,-6.5984 -2.93025,-13.3065 0.0343,-6.6059 0.42957,-8.3631 3.01176,-13.3903 5.1968,-10.1174 15.66535,-18.0387 27.07256,-20.4851 20.07807,-4.306 42.71969,11.2893 45.05836,31.0357 0.50788,4.2884 0.30987,4.9997 -2.04816,7.3577 -1.94606,1.9461 -3.545,2.6104 -6.28265,2.6104 -4.88672,0 -7.01261,-2.2976 -8.49314,-9.1792 -1.57485,-7.3199 -3.08833,-10.2021 -6.82125,-12.9898 -7.36008,-5.4967 -19.56989,-5.9385 -26.72736,-0.9673 -7.29908,5.0696 -10.23979,15.4715 -6.74115,23.8449 2.78636,6.6687 7.66437,9.9217 18.17634,12.1211 3.37167,0.7054 6.74798,1.7952 7.50293,2.4218 2.06414,1.7131 1.74186,7.8813 -0.51867,9.9271 -2.51639,2.2773 -9.68771,2.7095 -15.94872,0.9613 z m 153.64622,-17.7209 c -4.49264,-1.6055 -7.0355,-10.4862 -5.57394,-19.4664 3.30511,-20.3074 23.10529,-33.9375 43.32682,-29.8255 7.93916,1.6144 16.26491,5.8143 21.53327,10.8623 7.29956,6.9943 9.62559,12.1604 7.71596,17.1368 -0.72527,1.89 -5.24093,4.3197 -8.02837,4.3197 -2.27334,0 -7.88365,-5.439 -10.86568,-10.5339 -1.09291,-1.8673 -3.71897,-4.1823 -6.178,-5.4462 -8.41495,-4.3254 -22.65115,-1.1586 -28.32528,6.3007 -2.40123,3.1567 -2.56471,3.9948 -2.56471,13.1484 0,8.5378 -0.2409,10.0068 -1.90093,11.5926 -2.41528,2.3073 -5.95804,3.0483 -9.13914,1.9115 z m -86.25201,-37.5189 c -1.20654,-0.8451 -3.04296,-3.5178 -4.08096,-5.9393 -4.61715,-10.7714 -10.06618,-14.3303 -21.99251,-14.3639 -6.58442,-0.019 -7.66901,-0.2806 -9.74223,-2.3538 -3.18322,-3.1832 -2.98537,-6.6655 0.58134,-10.2322 2.88336,-2.8834 2.99351,-2.9082 10.37705,-2.3388 18.01105,1.3889 32.2559,11.1159 36.76703,25.1061 1.34255,4.1637 1.40458,5.3475 0.38042,7.2611 -2.26559,4.2333 -8.31894,5.6424 -12.29014,2.8608 z m 42.29283,-0.4339 c -6.38832,-5.025 -9.48596,-15.9455 -8.22011,-28.9794 1.62044,-16.6851 16.24115,-29.5093 22.18039,-19.455 2.35968,3.9946 1.96259,6.8783 -1.58868,11.5369 -7.68009,10.0747 -8.15181,14.5051 -2.51926,23.6606 4.4177,7.1808 4.94297,11.4489 1.68943,13.7278 -3.00272,2.1032 -8.54355,1.8675 -11.54177,-0.4909 z"
       style="fill:#2e2e2e" />
    <path
       style="fill:#ffffff"
       d="m 251.84961,557.92188 c -4.87288,-0.0338 -7.20597,4.24694 -10.44922,7.12695 -11.23085,13.52712 -11.24088,36.5415 2.25391,48.55859 5.70681,4.86621 17.50089,-0.53207 14.67773,-8.49023 -3.1687,-7.32564 -10.87068,-14.87498 -5.71484,-23.20899 2.76418,-5.68741 10.40406,-11.62562 6.44531,-18.58008 -1.51029,-2.63791 -3.89653,-5.43616 -7.21289,-5.40624 z m -78.00586,17.6621 c -6.14957,-0.35261 -13.49476,4.35591 -11.7168,11.28125 1.30123,7.30111 10.58476,6.47805 16.11133,6.64649 8.33799,-0.56906 15.14827,5.49055 17.65039,13.10156 1.60204,5.12437 6.43084,9.56054 12.08399,7.94922 6.12187,-0.88543 9.25792,-8.00088 6.38476,-13.35156 -6.31474,-16.20554 -23.51288,-25.87631 -40.51367,-25.62696 z m -30.64844,22.82618 c -20.41604,0.0761 -40.782,18.87543 -37.97656,40.03515 2.97079,17.14776 19.44078,31.45208 36.9375,31.41992 6.25893,1.02313 13.67097,-5.36223 10.36914,-11.73437 -4.56352,-7.05994 -14.71155,-4.2955 -20.75586,-9.41797 -12.33731,-7.29846 -8.75403,-28.47416 5.08985,-31.80078 9.93914,-2.20393 23.85458,0.3432 25.92773,12.22656 0.8225,5.82485 3.18063,14.03925 10.5,13.70508 5.94553,0.18616 11.1466,-5.3687 9.60547,-11.39063 -2.515,-18.97966 -20.63545,-33.82431 -39.69727,-33.04296 z m 172.35938,0.13086 c -19.1785,0.14792 -35.57431,18.44903 -35.45703,37.23828 0.67538,5.72605 1.1946,14.90673 8.5,15.86914 6.29599,1.36683 14.48802,-5.62854 11.09375,-12.14453 -2.14772,-8.68651 1.47994,-19.12335 10.88086,-21.51368 9.65408,-4.51656 22.75809,-1.44679 26.75,9.22071 3.14646,6.11767 12.75074,9.40212 17.34765,3.07226 4.3698,-6.94851 -0.88625,-15.01427 -6.36328,-19.49804 -8.81377,-8.00462 -20.84569,-12.52362 -32.75195,-12.24414 z m -91.04688,26.69921 c -22.48907,0.48601 -41.59462,25.26418 -34.22656,46.97461 2.42122,8.02159 16.45486,8.69789 17.94531,-0.18554 0.37334,-8.31725 -2.72822,-18.90007 5.70508,-24.44141 8.59607,-6.96144 22.70878,-6.64961 29.40625,2.73242 3.07525,5.51274 8.66463,12.88296 15.92773,9.94141 6.17387,-1.86563 6.89386,-9.64563 3.63086,-14.37305 -7.48444,-13.45507 -23.35959,-20.76758 -38.38867,-20.64844 z m 113.20508,27.64454 c -5.44364,-0.39588 -12.44197,2.96937 -11.27734,9.41211 0.58675,7.08666 9.02336,8.03892 14.53906,8.76562 9.21392,1.11348 16.02297,9.89086 14.82227,19.13867 0.44992,9.07191 -7.65917,16.15903 -16.32422,16.70899 -5.24132,0.50236 -9.54902,4.04682 -13.56055,6.55273 -19.86458,0 -39.72917,0 -59.59375,0 -6.73368,-15.43069 13.8562,-31.48722 27.80078,-23.2168 5.65038,3.17137 10.76945,10.14446 18.11914,7.83399 5.03288,-1.44096 8.40398,-7.66232 4.8457,-12.19922 -6.92747,-10.57936 -20.77596,-14.22542 -32.74609,-14.71094 -16.48178,-0.13345 -33.44291,10.94973 -36.466,27.82783 -1.72545,4.32597 -0.46322,9.53399 -2.09064,13.60186 -9.31625,1.71868 -19.05558,0.70895 -28.50195,0.42383 4.46674,-8.48283 12.81608,-18.52225 7.70117,-28.55664 -4.30929,-7.31167 -16.77372,-3.96494 -17.46875,4.39258 -0.86241,9.42611 -8.29078,19.02336 -18.59961,17.88476 -7.31746,0.29504 -15.91241,-1.47947 -18.9043,-9.11328 -3.01356,-5.76962 -2.51272,-15.74916 -10.6289,-17.25195 -7.72101,-1.34265 -14.27917,7.631 -10.72266,14.63281 1.6391,6.5009 6.46805,12.70149 8.68945,18.125 -11.3761,0.52845 -22.80405,0.47868 -34.17578,-0.15234 3.17973,-8.81156 11.30969,-18.06602 7.4707,-27.91016 -3.6701,-6.45559 -15.21881,-6.32622 -17.25585,1.46094 -1.64808,8.25498 -4.72139,18.38508 -14.556645,19.6914 -9.575085,2.19028 -22.719846,-0.70107 -24.921875,-11.69336 -2.580482,-9.15623 1.504528,-21.57715 12.199219,-22.80468 5.737403,-1.44638 15.454021,-2.19685 15.792971,-9.98633 -0.29143,-7.18499 -9.006883,-10.4904 -15.136721,-8.38672 -16.570577,3.25462 -32.956486,16.75331 -33.070313,34.7207 -1.318129,8.40771 3.54679,15.58465 7.080078,22.68945 2.141863,4.18542 -4.49193,2.08877 -6.443359,2.73243 -4.506141,0.42472 -9.463625,1.5639 -13.111328,3.90234 -2.458262,5.13564 -1.35889,11.47956 -0.07617,16.79883 2.747922,4.49494 1.483582,11.13241 2.786003,16.44545 11.027837,90.52134 22.027473,181.0647 34.356575,271.41983 1.172503,4.1734 0.523132,9.551 3.849609,12.8046 -1.195597,2.8778 4.702516,2.4054 6.782886,2.4614 85.47213,0.5242 170.96267,0.8519 256.42805,-0.2485 2.56942,-0.4278 2.21318,-3.7073 3.89258,-5.705 3.74767,-12.4574 3.45068,-25.8336 5.73632,-38.61647 11.01614,-85.98719 21.35122,-172.11816 32.45909,-258.04989 1.12513,-5.05408 2.95293,-10.32902 1.29482,-15.58564 -4.11234,-3.45645 -10.0379,-5.44309 -15.75976,-5.54883 -1.94303,-0.45292 -8.22497,0.36194 -5.45508,-3.07812 7.76929,-9.91246 10.65927,-23.98759 4.61719,-35.48243 -6.50269,-12.23222 -20.44759,-21.69969 -34.41602,-22.13085 z m -72.73047,79.79101 c 34.10455,0.39299 68.57844,-0.7305 102.45117,1.00977 -1.8366,20.2011 -5.26748,40.74248 -7.55431,61.07626 -9.63725,74.39021 -18.05355,148.96465 -28.78944,223.17179 -13.61376,1.0802 -27.46744,1.4602 -41.125,0.4336 -4.84462,-3.0366 -0.77794,-10.2134 -1.56202,-15.0305 4.71705,-78.12108 10.53685,-156.18452 14.4253,-234.35037 0.69478,-5.75139 -4.41834,-10.78893 -10.16601,-9.89258 -6.78923,-0.4954 -9.02464,7.10379 -9.11719,12.53711 -5.6564,81.5209 -10.19103,163.14172 -16.40625,244.60744 -3.46103,4.0331 -10.1905,2.1116 -14.86641,2.9189 -8.86198,-0.1007 -18.61003,0.9259 -26.96171,-0.5732 -1.69562,-46.39868 -0.72809,-93.0444 -1.15043,-139.54296 -0.0697,-38.5241 -0.13878,-77.0482 -0.20895,-115.57229 -4.11661,-5.10232 -14.84873,-6.88835 -17.39844,0.57422 -2.16523,18.40511 -0.87582,37.10202 -1.43331,55.61317 -0.25978,66.39758 -0.37053,132.79565 -0.55692,199.19346 -13.34961,0.961 -27.17036,1.0152 -40.55273,-0.7383 -4.66119,-0.2101 -2.16572,-6.6152 -3.321,-9.4833 -5.53124,-78.92869 -9.40877,-158.054 -16.06572,-236.92292 -0.55253,-4.79512 -1.17521,-13.17117 -7.91016,-12.59961 -5.35193,-0.81781 -11.57789,3.20438 -10.23786,9.17379 2.77283,71.47787 8.42863,142.81685 12.724,214.21596 0.44758,11.95262 2.21379,24.09248 2.10175,35.93058 -13.59512,1.0893 -27.74333,1.3434 -41.455077,-0.2871 -5.101484,-0.9842 -2.744991,-8.5987 -4.247942,-12.0678 C 84.505737,915.5197 72.380736,824.78077 62.162109,734.32227 c 6.771536,-2.22074 14.684457,-0.5975 21.884621,-1.24043 60.31026,-0.49283 120.62396,-0.39663 180.93569,-0.40606 z"
       id="path4477"
       inkscape:connector-curvature="0" />
    <text
       xml:space="preserve"
       style="font-style:normal;font-variant:normal;font-weight:normal;font-stretch:normal;font-size:229.69790649px;line-height:125%;font-family:'Wawati SC';-inkscape-font-specification:'Wawati SC, Normal';text-align:start;letter-spacing:0px;word-spacing:0px;writing-mode:lr-tb;text-anchor:start;fill:#ffffff;fill-opacity:1;stroke:none;stroke-width:1px;stroke-linecap:butt;stroke-linejoin:miter;stroke-opacity:1"
       x="424.56924"
       y="802.05713"
       id="text7926"
       sodipodi:linespacing="125%"><tspan
         sodipodi:role="line"
         id="tspan7928"
         x="424.56924"
         y="802.05713">movie</tspan></text>
    <text
       xml:space="preserve"
       style="font-style:normal;font-variant:normal;font-weight:normal;font-stretch:normal;font-size:195.49259949px;line-height:125%;font-family:'Wawati SC';-inkscape-font-specification:'Wawati SC, Normal';text-align:start;letter-spacing:0px;word-spacing:0px;writing-mode:lr-tb;text-anchor:start;fill:#ffffff;fill-opacity:1;stroke:none;stroke-width:1px;stroke-linecap:butt;stroke-linejoin:miter;stroke-opacity:1"
       x="400.41263"
       y="979.00348"
       id="text7930"
       sodipodi:linespacing="125%"><tspan
         sodipodi:role="line"
         id="tspan7932"
         x="400.41263"
         y="979.00348">TIMES</tspan></text>
  </g>
</svg>
