<?xml version="1.0" encoding="UTF-8" standalone="no"?>
<!-- Created with Inkscape (http://www.inkscape.org/) -->

<svg
   xmlns:dc="http://purl.org/dc/elements/1.1/"
   xmlns:cc="http://creativecommons.org/ns#"
   xmlns:rdf="http://www.w3.org/1999/02/22-rdf-syntax-ns#"
   xmlns:svg="http://www.w3.org/2000/svg"
   xmlns="http://www.w3.org/2000/svg"
   xmlns:sodipodi="http://sodipodi.sourceforge.net/DTD/sodipodi-0.dtd"
   xmlns:inkscape="http://www.inkscape.org/namespaces/inkscape"
   width="1024"
   height="512"
   viewBox="0 0 1024 512"
   id="svg7350"
   version="1.1"
   inkscape:version="0.91 r13725"
   sodipodi:docname="splash.ink.svg"
   inkscape:export-filename="/Users/intelWorx/projects/pebbmovies/resources/img/splash~bw.png"
   inkscape:export-xdpi="11.25"
   inkscape:export-ydpi="11.25">
  <defs
     id="defs7352" />
  <sodipodi:namedview
     id="base"
     pagecolor="#ffffff"
     bordercolor="#666666"
     borderopacity="1.0"
     inkscape:pageopacity="0.0"
     inkscape:pageshadow="2"
     inkscape:zoom="0.62597656"
     inkscape:cx="575.90015"
     inkscape:cy="256"
     inkscape:document-units="px"
     inkscape:current-layer="layer2"
     showgrid="false"
     units="px"
     inkscape:window-width="1280"
     inkscape:window-height="716"
     inkscape:window-x="0"
     inkscape:window-y="0"
     inkscape:window-maximized="1" />
  <metadata
     id="metadata7355">
    <rdf:RDF>
      <cc:Work
         rdf:about="">
        <dc:format>image/svg+xml</dc:format>
        <dc:type
           rdf:resource="http://purl.org/dc/dcmitype/StillImage" />
        <dc:title />
      </cc:Work>
    </rdf:RDF>
  </metadata>
  <g
     inkscape:groupmode="layer"
     id="layer2"
     inkscape:label="Layer 2">
    <rect
       style="opacity:1;fill:#000000;fill-opacity:1;stroke:none;stroke-width:2;stroke-miterlimit:4;stroke-dasharray:none;stroke-opacity:1"
       id="rect4806"
       width="1123.0453"
       height="578.29639"
       x="-30.352573"
       y="-29.553823" />
  </g>
  <g
     inkscape:label="Layer 1"
     inkscape:groupmode="layer"
     id="layer1"
     transform="translate(0,-540.36219)">
    <path
       style="fill:#ffffff"
       d="m 80.830937,1034.1413 c -1.14572,-0.4505 -2.71885,-1.8043 -3.49586,-3.0086 -1.53535,-2.3798 -16.91301,-120.63068 -33.78048,-259.7647 -6.85031,-56.50589 -6.60132,-52.08294 -3.12752,-55.55675 2.56118,-2.56118 3.53799,-2.89812 8.43489,-2.9096 6.48593,-0.0152 9.81534,-0.75442 9.81534,-2.17928 0,-0.56105 -1.81776,-4.02858 -4.03946,-7.70562 -3.91577,-6.48082 -4.03946,-6.93429 -4.03946,-14.80927 0,-7.26002 0.33151,-8.79713 3.11806,-14.45742 5.24802,-10.66024 15.93881,-18.58808 28.63651,-21.23563 7.3024,-1.52259 9.99251,-1.00827 13.30107,2.54305 2.53244,2.71827 2.61995,7.8054 0.17631,10.24905 -0.99874,0.99873 -4.31347,2.30112 -7.36608,2.89419 -13.9809,2.71625 -18.39136,6.69223 -19.15644,17.26926 -1.01542,14.03811 8.29968,22.1256 23.32222,20.24866 8.925093,-1.11512 14.415363,-6.56163 16.518593,-16.38693 1.56314,-7.30229 3.81821,-9.68323 9.1713,-9.68323 3.39798,0 4.72973,0.54523 7.08521,2.90071 2.64582,2.64581 2.85099,3.29307 2.33494,7.36607 -0.32349,2.55321 -2.5858,8.43369 -5.28305,13.73237 l -4.71728,9.267 18.9423,0 c 10.41827,0 18.94231,-0.16512 18.94231,-0.36693 0,-0.2018 -1.6453,-2.87497 -3.65621,-5.94038 -10.00216,-15.24713 -9.05192,-26.95884 2.18732,-26.95884 4.90645,0 7.73295,2.09664 8.61639,6.39144 3.13125,15.22257 7.83063,19.52114 21.34127,19.52114 7.72599,0 11.27269,-1.22483 14.94947,-5.16271 2.73173,-2.92571 5.03528,-8.52453 5.03528,-12.2383 0,-4.66269 4.44857,-8.51157 9.83775,-8.51157 3.49299,0 4.64388,0.46108 6.25111,2.50434 3.94723,5.01808 1.66052,16.57392 -5.05144,25.52737 -1.1785,1.57205 -2.45844,3.39292 -2.84432,4.04636 -0.54955,0.93062 2.66429,1.18808 14.83055,1.18808 l 15.53214,0 1.08257,-9.10516 c 1.36412,-11.47329 4.24805,-17.63157 11.25655,-24.03694 11.75066,-10.73944 31.03513,-12.70535 46.89415,-4.78051 11.32578,5.65956 15.66565,14.13646 9.94951,19.434 -4.18826,3.88155 -9.89875,2.92416 -16.20698,-2.71719 -5.24779,-4.69301 -7.71728,-5.72394 -13.71108,-5.72394 -4.0443,0 -6.36906,0.59894 -9.50871,2.44977 -8.0261,4.73141 -11.28412,9.73666 -11.28412,17.33565 0,7.70041 -2.47485,7.14432 31.79483,7.14432 29.93129,0 30.68288,-0.0463 32.44937,-1.99823 2.47857,-2.73879 5.78016,-4.30147 10.84224,-5.13174 13.57478,-2.22652 20.08053,-12.7207 15.65759,-25.25665 -2.61203,-7.40328 -7.55293,-10.73298 -18.15436,-12.23433 -7.84575,-1.1111 -10.29126,-3.15407 -10.29126,-8.59734 0,-5.93749 1.87749,-7.136 11.17866,-7.136 6.93435,0 8.55418,0.35781 14.1982,3.13636 13.49913,6.6456 21.46763,17.15227 22.33837,29.45373 0.5769,8.15001 -0.72815,12.84408 -5.59868,20.13777 -2.20314,3.29923 -3.54729,6.20586 -3.07648,6.65269 0.45986,0.43645 4.35784,0.94387 8.66217,1.12761 7.02871,0.30003 8.09034,0.59834 10.41996,2.92797 2.01927,2.01927 2.56121,3.41371 2.44634,6.2945 -0.21927,5.49861 -6.32267,55.35946 -21.77215,177.86453 -7.61446,60.37805 -14.24819,113.5848 -14.74164,118.2372 -0.93965,8.8595 -1.6784,11.0553 -4.91438,14.6073 l -1.96428,2.156 -128.84299,-0.098 c -70.86365,-0.054 -129.780403,-0.4664 -130.926133,-0.9168 z m 57.337183,-23.9699 c -0.63488,-8.1698 -5.65438,-85.26866 -9.6068,-147.55912 -3.62485,-57.12798 -5.58286,-96.92767 -4.90198,-99.64053 0.66511,-2.64998 4.83196,-5.38544 8.20349,-5.38544 2.86369,0 7.37944,2.54469 7.99319,4.50426 0.78257,2.49865 6.45522,83.75494 11.96091,171.33107 2.67844,42.60443 5.06826,78.80116 5.31072,80.43706 0.58556,3.9512 1.84015,4.154 25.70366,4.154 l 19.36565,0 0.0587,-121.89666 c 0.0323,-67.04316 0.37216,-125.02492 0.75522,-128.84835 0.44123,-4.4043 1.20336,-7.28076 2.07977,-7.84971 3.92519,-2.54811 8.56943,-2.20311 12.43106,0.92345 l 2.25873,1.82877 0.3122,127.92124 0.3122,127.92126 19.8321,0 c 19.22594,0 19.90503,-0.065 22.21835,-2.1386 l 2.38625,-2.1385 7.63574,-121.18379 c 4.19965,-66.6511 7.81242,-123.09462 8.02838,-125.43006 0.85977,-9.29809 12.25287,-12.96127 17.13546,-5.50949 1.30095,1.9855 1.25797,5.53641 -0.42338,34.97188 -2.59993,45.5175 -13.13556,209.75286 -13.72163,213.90076 -0.29885,2.1152 0.0236,4.0931 0.85223,5.2276 1.23468,1.6904 2.91193,1.8462 22.74397,2.1127 l 21.41099,0.2878 0.51535,-3.1392 c 0.28347,-1.7265 7.9949,-63.44587 17.13656,-137.15414 9.14165,-73.70827 17.05981,-136.39318 17.59589,-139.2998 0.53608,-2.9066 0.9747,-6.00748 0.9747,-6.89084 0,-1.49993 -8.52782,-1.60596 -129.02512,-1.60403 -126.3631,0.002 -174.821853,0.53822 -177.122163,1.95989 -0.87145,0.53859 3.02168,34.25259 16.14397,139.80455 9.5108,76.50214 17.6083,140.36127 17.99446,141.90927 0.46485,1.8633 1.49661,3.0357 3.05328,3.4694 1.29315,0.3603 11.498793,0.6977 22.679193,0.7498 l 20.32801,0.095 -0.60935,-7.8413 z m 54.049,-334.22857 c -5.3994,-2.33564 -8.06416,-11.37195 -6.13904,-20.81768 2.50362,-12.28414 12.56743,-24.60682 23.45209,-28.71603 10.07926,-3.80516 23.70779,-2.38733 34.80964,3.62138 7.84671,4.24692 16.78575,15.47456 16.78575,21.08328 0,3.41176 -4.98901,7.62456 -9.02938,7.62456 -3.8762,0 -6.4059,-2.12052 -11.5913,-9.71639 -6.59474,-9.66035 -18.73576,-11.16965 -30.05357,-3.73608 -5.4929,3.60775 -6.5005,6.37709 -6.43151,17.6765 0.051,8.36181 -0.19376,9.98428 -1.71421,11.36027 -2.11539,1.91441 -7.4338,2.76853 -10.08847,1.62019 z m -60.05314,-8.6465 c -11.19053,-2.34591 -22.25529,-11.19107 -27.28993,-21.81554 -2.43287,-5.13403 -2.94884,-7.39461 -2.93984,-12.88014 0.0342,-20.85487 22.97769,-38.86128 44.43253,-34.87135 17.24401,3.20685 30.43987,16.54447 32.70276,33.05407 0.50253,3.66637 0.25777,4.39829 -2.33945,6.9955 -2.29577,2.29576 -3.71783,2.9007 -6.81886,2.9007 -5.46508,0 -8.11927,-2.87604 -9.59999,-10.40239 -1.44796,-7.35985 -3.99791,-11.17786 -9.35102,-14.00119 -7.93776,-4.18652 -20.87737,-2.41926 -26.40012,3.60566 -2.94341,3.21106 -4.10277,6.83129 -4.10277,12.8114 0,10.64098 4.36373,15.34572 17.21441,18.55969 9.50759,2.37786 11.29943,3.71272 11.29943,8.41768 0,6.53911 -6.94965,9.69237 -16.80715,7.62591 z m 150.8407,-18.80407 c -4.37855,-2.2331 -5.94283,-7.01563 -5.50873,-16.84207 0.26127,-5.91425 0.92538,-8.82122 2.98899,-13.08345 3.68249,-7.60589 10.5856,-14.39042 18.32867,-18.01384 5.70431,-2.66937 7.27303,-2.97728 14.99379,-2.94303 10.01989,0.0445 16.57576,2.02285 24.80608,7.48582 11.78716,7.82388 16.85785,18.31188 11.46207,23.70766 -5.54273,5.54274 -11.90079,3.68684 -16.94157,-4.94518 -4.50267,-7.71054 -8.57332,-9.95656 -17.35689,-9.57682 -15.14358,0.65471 -22.87867,9.14093 -20.25224,22.21888 1.21356,6.04279 0.55614,9.18491 -2.31005,11.04082 -3.71289,2.40416 -6.79774,2.69155 -10.21012,0.95121 z m -84.81357,-36.46957 c -1.91602,-0.70058 -3.45016,-2.75222 -5.96005,-7.97051 -4.98532,-10.36492 -7.74985,-12.15617 -19.72366,-12.77981 -8.88973,-0.46301 -9.58176,-0.64923 -11.73914,-3.15879 -3.03727,-3.5331 -2.89266,-6.61304 0.4877,-10.38707 2.7125,-3.02841 2.96255,-3.10161 10.26837,-3.006 17.65122,0.231 34.00028,10.86323 38.79113,25.2269 1.8691,5.60382 1.03004,9.03202 -2.77908,11.35474 -3.25261,1.98338 -5.43201,2.15141 -9.34527,0.72054 z m 39.61505,-3.06477 c -5.43771,-5.6751 -7.09755,-11.0302 -7.08607,-22.86157 0.008,-8.02787 0.36748,-10.33993 2.22867,-14.32522 5.79213,-12.40253 14.56931,-17.08033 20.64622,-11.00342 3.83199,3.83199 3.51961,6.47469 -1.65871,14.03234 -6.36731,9.29296 -6.61985,13.29702 -1.38507,21.96086 2.36808,3.91931 3.92113,7.66323 3.92113,9.45259 0,4.00331 -3.71533,6.90269 -8.84526,6.90269 -3.29005,0 -4.40417,-0.59235 -7.82091,-4.15827 z"
       id="path4828"
       inkscape:connector-curvature="0" />
    <text
       xml:space="preserve"
       style="font-style:normal;font-variant:normal;font-weight:normal;font-stretch:normal;font-size:229.69790649px;line-height:125%;font-family:'Wawati SC';-inkscape-font-specification:'Wawati SC, Normal';text-align:start;letter-spacing:0px;word-spacing:0px;writing-mode:lr-tb;text-anchor:start;fill:#ffffff;fill-opacity:1;stroke:none;stroke-width:1px;stroke-linecap:butt;stroke-linejoin:miter;stroke-opacity:1;"
       x="424.56924"
       y="802.05713"
       id="text7926"
       sodipodi:linespacing="125%"><tspan
         sodipodi:role="line"
         id="tspan7928"
         x="424.56924"
         y="802.05713">movie</tspan></text>
    <text
       xml:space="preserve"
       style="font-style:normal;font-variant:normal;font-weight:normal;font-stretch:normal;font-size:195.49259949px;line-height:125%;font-family:'Wawati SC';-inkscape-font-specification:'Wawati SC, Normal';text-align:start;letter-spacing:0px;word-spacing:0px;writing-mode:lr-tb;text-anchor:start;fill:#ffffff;fill-opacity:1;stroke:none;stroke-width:1px;stroke-linecap:butt;stroke-linejoin:miter;stroke-opacity:1;"
       x="400.41263"
       y="979.00348"
       id="text7930"
       sodipodi:linespacing="125%"><tspan
         sodipodi:role="line"
         id="tspan7932"
         x="400.41263"
         y="979.00348">TIMES</tspan></text>
  </g>
</svg>
